<?xml version="1.0" encoding="utf-8"?>
<svg xmlns="http://www.w3.org/2000/svg" xmlns:svg="http://www.w3.org/2000/svg" version="1.1" viewBox="0 0 255 194">
	<title>Three horizontal lines stacked vertically, with a squiggly symbol above the middle of each.</title>
	<path d="M2.42 193.24c-.7-.88-.7-1.99-.03-2.6.62-.56 4.18-.9 6.89-.64.94.08 2.73.04 3.97-.09 1.23-.13 4.39-.24 7-.23 2.63 0 7.21-.05 10.2-.12 14.6-.32 38.1-.44 76.99-.38 13.6.02 25.8-.02 27.12-.1 2.06-.1 9.86-.45 18.78-.82 1.46-.06 3.42-.24 4.37-.39a208 208 0 0 1 12.17-.53c5.75-.15 11.64-.33 13.1-.4 3.18-.18 20.77-.18 28.7-.02 15.66.34 21.09.36 22.18.08.8-.2 1.3-.2 1.72 0 .35.18 3.84.34 9.04.42 4.66.07 8.67.2 8.91.3.56.22.84 1.32.5 1.96-.5.94-2.89 1.39-4.38.82-.6-.23-9.29-.57-14.29-.56l-8.6-.01h-26.98c-3.28-.05-7.43-.02-9.26.06-.8.03-3.24-.01-5.43-.1a28 28 0 0 0-6.17.22c-1.21.21-2.28.43-2.38.5-.1.05-4.23.14-9.17.19-4.95.04-9.42.18-9.93.3-1.76.4-13.66.72-19.44.51-4.24-.15-22.24.24-22.9.5-.42.16-7.26.28-18 .31-13.92.04-17.48-.02-18.17-.3a3.4 3.4 0 0 0-1.85-.17c-.55.1-4.1.28-7.87.4-3.79.13-8.59.32-10.67.42-2.69.13-3.88.1-4.09-.12-.37-.37-1.39-.38-2.06-.02a7.8 7.8 0 0 1-4.93.4c-1.72-.43-7.96-.38-13.18.12-1.6.15-3.74.26-4.76.24-1.73-.03-11.95.17-22.14.43l-4.42.12zm107.45-8.61c-.43-.44-.4-1.67.06-2.05.21-.17.84-.28 1.4-.23.82.06 1.02.2 1.09.7.13.92-.63 1.9-1.5 1.9-.4 0-.87-.15-1.05-.32m15.82-.38c-.21-.04-1.82-.2-3.57-.34-3.99-.33-5.93-.95-8.7-2.8-1.43-.94-2.48-1.46-2.99-1.46-.63 0-.89-.2-1.37-1.05a6 6 0 0 0-1.38-1.61l-.8-.57.11-4.53a92 92 0 0 1 .59-8.16c.39-2.91.42-3.7.15-4.02-.78-.94-8.54.2-10.06 1.47-.23.19-1.05.64-1.81 1-1.9.87-5.78 4.63-7.44 7.23a13 13 0 0 0-1.65 3.51c-.18.8-.42 1.53-.54 1.6s-.22.35-.22.6c0 .54-1.65 2.55-2.43 2.97-.38.2-.74.2-1.25-.02-.73-.3-2.82-2.53-3.99-4.24-.34-.5-1.26-1.77-2.03-2.8a15 15 0 0 1-1.42-2.06c0-.24-1.54-2.1-4.06-4.9a20 20 0 0 1-3.86-6.47c-.45-1.18.5-2.53 1.8-2.55.77 0 3.1 1.94 3.43 2.87.13.39.85 1.47 1.6 2.4s1.36 1.79 1.36 1.9c0 .12.68 1.03 1.52 2.01.84.99 1.7 2.15 1.91 2.59s.99 1.45 1.73 2.25c.73.8 1.6 1.8 1.93 2.22.57.74.6.75 1.1.3.29-.26.66-.9.84-1.43s.93-1.89 1.69-3.02c1.59-2.37 5.88-6.35 7.85-7.27.67-.31 1.3-.7 1.4-.85s.34-.27.55-.27.9-.24 1.5-.52c3.21-1.5 5.78-1.98 6.24-1.17.2.35.34.37.82.11a14 14 0 0 1 5.04-1.07c1.41 0 1.61.08 2.25.84l.7.83-.11 4.53a48 48 0 0 1-.54 6.64c-.34 1.63-.37 2.31-.15 2.99.18.53.22 1.58.11 2.68-.19 1.9.09 2.93.78 2.93.2 0 .75.32 1.22.7a18 18 0 0 0 6.88 3.36c.94.23 3.48.47 5.67.54 3.76.12 4.07.1 5.89-.55 1.9-.68 2.24-1.05 1.56-1.73-.6-.6-.97-1.46-.97-2.27 0-1.02 1.55-2.72 3.28-3.62 1.6-.82 1.97-.83 3.07-.07.83.56.88.69.93 2.31.09 2.75-.44 3.63-3.16 5.25-3.7 2.23-5.16 2.73-8.07 2.81-1.4.04-2.7.03-2.93-.02m11.13-6.83c-.46-.56-1.07-.52-1.07.06 0 .78.57 1.19 1.02.73.32-.31.33-.46.05-.8m-63.27-21.8c-.99-.48-2.09-2.33-2.1-3.51 0-.77.73-1.56 1.45-1.56.86 0 2.5.6 3.05 1.1.36.35.53.84.53 1.57 0 1.33-.34 1.98-1.29 2.47-.66.34-.84.34-1.64-.06M.82 119.35c-.43-.8-.33-1.51.32-2.23.57-.64.78-.67 5.5-.94 2.68-.16 6.3-.28 8.01-.28 1.75 0 3.37-.13 3.67-.29.34-.18 3.6-.33 8.9-.4 4.61-.06 9.22-.24 10.24-.4 1.02-.15 5.14-.26 9.21-.25 7.12.03 7.4.01 8.3-.54.82-.52 1.14-.56 2.95-.39 2.93.27 12.9.18 14.5-.14 1.18-.23 1.48-.2 2.3.27.83.47 1.27.51 3.54.38 1.42-.08 5.62-.24 9.33-.37l7.41-.25c.37-.01 2.1.04 3.84.13 6.63.3 10.08.28 10.52-.08.23-.19.6-1.2.84-2.26.4-1.81.5-2 1.88-3.15 2.46-2.07 4.43-2.5 5.68-1.25.44.43.53.88.53 2.64 0 1.16.07 2.11.15 2.11.1 0 .5-.37.93-.82.53-.56.77-1.1.77-1.7 0-.98-1.18-3.63-2.22-5-.38-.5-.7-1-.7-1.1 0-.82-4.41-5.66-5.16-5.66-.1 0-.56-.31-1.01-.69-1.72-1.41-3.72-2.75-4.12-2.76-.23 0-.94-.36-1.58-.8a3.8 3.8 0 0 0-2.59-.78c-.78 0-1.62-.1-1.87-.23-.26-.13-.8-.4-1.2-.58-.4-.2-.8-.62-.89-.96-.2-.82.55-1.94 1.3-1.93.87 0 5.63 1 7.05 1.47 1.7.57 7.57 3.48 7.96 3.95.18.22.5.4.7.4s1.4 1.04 2.68 2.31a15 15 0 0 1 3.57 4.88c.69 1.41 1.25 2.8 1.25 3.1 0 .29.11.6.25.67.49.3.65 3.1.22 3.96-.48 1-1 2.58-1 3.06 0 .28 1.95.32 10.79.2a583 583 0 0 0 17.26-.45c1.47.16 11.14-.06 11.9-.27.51-.15 3-.26 5.51-.26 2.62 0 4.8-.12 5.09-.28.33-.17 6.42-.27 17.49-.26 11.65 0 17.53-.1 18.73-.3a53 53 0 0 1 10.1-.09c1.13.2 8.47.5 22.86.95 11.4.35 11.69.37 12.15.75.5.42.54 1.17.08 1.55-.48.4-7.08.54-15.54.33-4-.1-7.82-.08-8.48.04-.74.14-1.7.1-2.51-.08-.72-.16-3.4-.4-5.94-.54-5.96-.3-6.54-.31-9.4-.1-1.3.1-9.76.2-18.78.24-11.7.05-16.67.16-17.32.38-.51.17-3.49.43-6.62.57-3.13.15-6.83.34-8.2.42-1.39.09-5.02.2-8.08.24-3.05.05-6.15.16-6.88.24-1.57.19-8.08.43-14.15.53-2.4.05-4.63.17-4.96.27-.6.2-10.13.49-13.87.43-1.1-.02-3.24.1-4.74.26-2.8.31-9.08.55-14 .54-14.13-.03-20.3.07-21.7.35-.5.1-11.82.24-25.13.3-13.32.06-26 .23-28.18.39-2.18.15-5.16.29-6.62.3a16 16 0 0 0-3.7.4q-1.06.36-4.95.36c-3.58 0-3.92-.04-4.17-.5m114.3-8.49c.54-.28.74-1.58.26-1.58-.49 0-1.32 1.04-1.16 1.45.18.48.24.49.9.13M.8 40.94c-1.19-.92-1.01-2.56.35-3.27.92-.47 7.13-.51 19.25-.12 8.82.29 18.2.19 22.89-.25 1.45-.14 4.57-.31 6.93-.39 2.36-.07 4.57-.25 4.93-.38.94-.36 66.85-.15 68.64.21.97.2 2.8.21 6.05.04a42 42 0 0 1 4.9-.11c.28.17 19.66.48 25.23.4 2.18-.04 4.32-.17 4.76-.3.74-.22 18.72-.4 41.14-.39h17.33c4.22 0 8.03.1 8.47.22 1.66.45 6.04.78 12.03.89 6.92.12 7.15.18 7.15 1.84v.89h-6.6c-3.85 0-6.89-.12-7.3-.27-1.06-.4-19.97-.62-20.93-.24-1.07.43-21.96.4-24.14-.04-1.21-.24-2.63-.24-5.9-.02-2.38.16-10.27.37-17.55.46-13.08.17-19.39.28-21.96.4-.72.03-2.75-.02-4.5-.11-4.52-.24-21.93-.27-66.27-.1-52.5.22-70.35.4-71.28.71-1.05.36-3.11.32-3.62-.07m86.94-19.9c-2.3-1.3-2.24-1.2-1.83-2.8.45-1.74.82-2.14 2.7-2.96l1.9-.83c1.14-.5 9.55-6.05 12.04-7.95.88-.67 2.17-1.52 2.88-1.9 1.6-.84 3.95-2.34 4.44-2.82C110.93.72 112.38 0 113.46 0c.9 0 1.31.17 2.13.91.55.5 2.07 1.46 3.37 2.13s2.67 1.4 3.03 1.6.99.38 1.38.38c.4 0 1.17.27 1.72.58 2.75 1.58 3.64 1.89 5.5 1.93 1.15.02 2.1.2 2.51.45.37.22 1.38.55 2.25.73s2.03.45 2.57.6c.7.21 2.11.2 5.03-.02 6.11-.48 10.06-1.37 13.1-2.98.8-.41 1.68-.75 1.97-.75.68 0 1.39-.38 3.02-1.62a5 5 0 0 1 1.94-1.03c2.54 0 1.99 2.81-.83 4.25-.83.43-1.64.78-1.8.78-.15 0-1.28.47-2.52 1.04-1.95.91-3.43 1.32-7.4 2.03-.43.07-1.5.3-2.38.5-2.6.6-11.2.79-13.89.3-2.9-.52-7.32-1.7-8.33-2.22-.74-.39-2.6-1.09-6.75-2.57a24 24 0 0 1-3.35-1.57 7 7 0 0 0-2.26-.95c-.34 0-1.27.43-2.07.96s-1.96 1.2-2.59 1.48c-1.51.67-3.14 1.8-4.53 3.1a5 5 0 0 1-1.44 1.07c-.17 0-.72.34-1.23.75-.5.4-1.63 1.13-2.5 1.61-2.53 1.4-2.78 1.72-2.78 3.52 0 1.51-.03 1.57-1.34 2.82a5.5 5.5 0 0 1-3.15 1.71c-2.34.57-2.26.58-4.11-.48"/>
</svg>
